<svg width="61" height="61" viewBox="0 0 61 61" fill="none" xmlns="http://www.w3.org/2000/svg">
<path d="M55.9167 30.5C55.9167 37.2409 53.2388 43.7057 48.4723 48.4723C43.7057 53.2388 37.2409 55.9167 30.5 55.9167C27.1622 55.9167 23.8572 55.2592 20.7735 53.9819C17.6898 52.7046 14.8879 50.8324 12.5277 48.4723C7.76115 43.7057 5.08333 37.2409 5.08333 30.5C5.08333 23.7591 7.76115 17.2942 12.5277 12.5277C17.2943 7.76115 23.7591 5.08333 30.5 5.08333C33.8378 5.08333 37.1428 5.74075 40.2265 7.01806C43.3102 8.29536 46.1121 10.1675 48.4723 12.5277C50.8325 14.8879 52.7046 17.6898 53.9819 20.7735C55.2592 23.8571 55.9167 27.1622 55.9167 30.5V30.5ZM39.1417 42.1917L27.45 30.5L39.1417 18.8083L35.5833 15.25L20.3333 30.5L35.5833 45.75L39.1417 42.1917Z" fill="#630050"/>
</svg>
