<svg width="54" height="54" viewBox="0 0 54 54" fill="none" xmlns="http://www.w3.org/2000/svg">
<path d="M16.875 50.625C18.739 50.625 20.25 49.114 20.25 47.25C20.25 45.386 18.739 43.875 16.875 43.875C15.011 43.875 13.5 45.386 13.5 47.25C13.5 49.114 15.011 50.625 16.875 50.625Z" fill="#E4C54A"/>
<path d="M40.5 50.625C42.364 50.625 43.875 49.114 43.875 47.25C43.875 45.386 42.364 43.875 40.5 43.875C38.636 43.875 37.125 45.386 37.125 47.25C37.125 49.114 38.636 50.625 40.5 50.625Z" fill="#E4C54A"/>
<path d="M47.25 11.8125H9.82125L8.4375 4.72501C8.35861 4.3381 8.14654 3.99112 7.8382 3.74445C7.52986 3.49778 7.14478 3.36705 6.75 3.37501H0V6.75001H5.36625L11.8125 39.15C11.8914 39.5369 12.1035 39.8839 12.4118 40.1306C12.7201 40.3772 13.1052 40.508 13.5 40.5H43.875V37.125H14.8838L13.5 30.375H43.875C44.2651 30.3845 44.6464 30.2586 44.9541 30.0186C45.2618 29.7786 45.4768 29.4394 45.5625 29.0588L48.9375 13.8713C48.9941 13.6209 48.9927 13.3609 48.9337 13.1111C48.8746 12.8613 48.7593 12.6283 48.5966 12.4297C48.4338 12.2312 48.228 12.0724 47.9946 11.9655C47.7613 11.8585 47.5066 11.8062 47.25 11.8125ZM42.525 27H12.8588L10.4963 15.1875H45.1406L42.525 27Z" fill="#E4C54A"/>
</svg>
