<?xml version="1.0" standalone="no"?>
<!DOCTYPE svg PUBLIC "-//W3C//DTD SVG 20010904//EN"
 "http://www.w3.org/TR/2001/REC-SVG-20010904/DTD/svg10.dtd">
<svg version="1.0" xmlns="http://www.w3.org/2000/svg"
 width="1500.000000pt" height="1500.000000pt" viewBox="0 0 1500.000000 1500.000000"
 preserveAspectRatio="xMidYMid meet">

<g transform="translate(0.000000,1500.000000) scale(0.100000,-0.100000)"
fill="#000000" stroke="none">
<path d="M7255 14713 c-897 -71 -1664 -421 -2285 -1043 -572 -571 -909 -1257
-1022 -2082 l-23 -163 0 -3060 0 -3060 3578 -3 3577 -2 0 3022 c0 1933 -4
3063 -10 3133 -66 723 -328 1371 -784 1940 -112 139 -338 368 -484 491 -570
477 -1267 763 -2005 823 -116 10 -442 12 -542 4z m580 -64 c833 -77 1612 -452
2201 -1061 526 -544 858 -1227 958 -1968 34 -248 36 -432 36 -3352 l0 -2918
-3525 0 -3525 0 3 3063 c3 3313 -1 3064 52 3366 67 386 227 811 439 1169 271
457 701 896 1158 1182 130 82 430 233 568 287 526 205 1076 283 1635 232z"/>
<path d="M7230 14379 c-441 -36 -940 -189 -1317 -404 -281 -160 -489 -319
-723 -554 -541 -543 -841 -1174 -941 -1981 -9 -71 -13 -824 -16 -2930 -2
-1559 -1 -2845 2 -2858 l5 -22 3273 2 3272 3 0 2865 c0 2709 -1 2873 -18 3003
-99 752 -411 1398 -926 1915 -694 696 -1628 1040 -2611 961z m740 -77 c236
-36 417 -81 635 -159 781 -279 1450 -883 1811 -1637 53 -111 124 -281 124
-297 0 -5 -73 -10 -162 -11 -150 -3 -163 -4 -166 -22 -2 -10 2 -22 10 -27 7
-5 88 -9 179 -9 l166 0 26 -87 c62 -204 107 -436 127 -653 5 -63 10 -298 10
-522 l0 -408 -299 0 c-231 0 -300 -3 -304 -12 -12 -37 -2 -38 304 -38 l299 0
0 -1033 0 -1033 -42 -11 c-129 -35 -215 -155 -206 -289 l3 -53 -37 -6 c-57
-10 -138 -64 -174 -118 -34 -49 -59 -141 -51 -183 l4 -24 -113 0 -113 0 -10
53 c-6 28 -15 81 -21 117 -6 36 -13 73 -16 83 -5 15 2 17 58 17 71 0 92 9 86
36 -3 16 -14 19 -81 22 -42 2 -77 4 -77 6 0 1 -25 141 -55 310 -30 168 -55
313 -55 321 0 10 17 15 68 17 64 3 67 4 67 28 0 24 -2 25 -75 28 l-76 3 -62
352 c-35 194 -62 355 -62 360 0 4 34 7 75 7 73 0 75 1 75 25 0 23 -2 24 -82
27 l-82 3 -51 288 -51 287 98 0 c79 0 100 3 104 15 14 34 -14 45 -117 45 -55
0 -99 4 -99 8 0 4 -18 109 -40 232 -22 123 -40 231 -40 240 0 14 125 89 133
79 2 -2 27 -39 56 -81 31 -47 59 -78 69 -78 19 0 222 198 222 217 0 7 -35 38
-77 70 -43 31 -80 58 -82 59 -2 2 15 40 37 86 23 46 47 107 53 136 7 28 17 52
23 52 6 -1 51 -9 100 -19 49 -11 95 -17 103 -14 10 4 13 41 13 164 l0 159 -32
0 c-18 0 -68 -7 -111 -15 -95 -18 -87 -18 -87 0 0 29 -50 160 -79 207 l-29 47
89 58 c63 41 89 64 89 78 0 22 -196 225 -217 225 -12 0 -20 -10 -102 -122
l-41 -58 -48 30 c-26 16 -85 41 -130 56 -58 19 -82 32 -82 43 1 9 9 56 20 106
13 63 15 94 8 102 -8 9 -52 13 -160 13 -128 0 -149 -2 -155 -16 -5 -14 9 -142
23 -199 4 -17 -4 -22 -61 -37 -36 -10 -97 -33 -135 -53 l-70 -34 -60 89 c-38
56 -67 90 -78 90 -10 0 -64 -47 -122 -105 -121 -122 -121 -113 -12 -191 39
-27 74 -53 78 -56 3 -4 -15 -47 -40 -97 -25 -50 -48 -107 -52 -126 -3 -20 -11
-38 -16 -41 -5 -3 -51 2 -102 12 -51 9 -101 14 -110 11 -14 -6 -16 -27 -16
-161 0 -118 3 -155 13 -159 7 -3 57 3 111 13 70 13 99 14 101 6 2 -6 13 -43
24 -81 11 -39 34 -96 50 -127 l30 -56 -85 -56 c-52 -35 -84 -63 -84 -74 0 -9
47 -64 104 -121 80 -79 108 -102 122 -97 11 4 42 40 69 81 28 41 53 75 57 75
5 0 93 -50 117 -67 3 -2 -15 -116 -39 -253 l-43 -250 -77 0 c-57 0 -81 -4 -90
-15 -24 -29 5 -45 81 -45 55 0 69 -3 69 -15 0 -14 -84 -492 -95 -542 -5 -20
-12 -22 -73 -25 -59 -3 -67 -5 -67 -23 0 -18 8 -20 63 -23 40 -2 62 -7 61 -15
0 -7 -15 -93 -33 -192 l-32 -180 -457 -3 -457 -2 0 120 0 119 -232 383 c-127
211 -238 391 -246 401 -18 21 -796 527 -810 527 -6 0 -190 -117 -409 -259
l-398 -259 -237 -391 -238 -392 0 -809 0 -810 -118 0 -119 0 20 58 c58 173
-60 350 -249 369 l-54 6 0 66 c0 159 -108 269 -272 279 l-78 5 0 953 0 954
279 0 c224 0 280 3 284 13 13 34 -7 37 -283 39 l-275 3 0 450 0 450 27 46 c80
135 262 153 366 35 17 -20 40 -36 50 -36 16 0 20 10 26 61 15 151 117 255 262
267 80 6 148 -17 209 -70 55 -48 84 -102 92 -168 9 -75 11 -76 93 -50 65 21
76 22 127 11 64 -15 123 -62 155 -125 20 -40 23 -68 15 -186 -1 -26 2 -35 16
-38 25 -5 47 54 47 131 0 120 -70 218 -185 263 -41 15 -148 17 -194 3 -8 -3
-17 11 -25 41 -40 151 -202 263 -358 246 -142 -14 -263 -114 -297 -243 l-12
-42 -35 24 c-46 31 -95 45 -160 45 -62 0 -105 -14 -161 -52 -50 -34 -49 -39
-28 105 80 544 308 1077 646 1509 27 34 39 43 43 32 5 -12 30 -14 153 -12 140
3 148 4 148 23 0 19 -8 20 -144 25 l-144 5 53 60 c30 33 83 90 119 128 61 62
68 67 98 61 37 -7 55 15 33 41 -12 15 8 38 115 128 l31 25 84 -70 c47 -39 87
-72 89 -73 2 -2 -12 -27 -30 -54 -26 -42 -38 -51 -61 -51 -37 0 -50 -28 -21
-47 19 -13 19 -16 5 -83 l-15 -70 -78 0 c-53 0 -79 -4 -82 -12 -10 -31 5 -38
83 -38 l77 0 12 -57 c6 -32 8 -59 4 -61 -131 -50 -188 -79 -191 -98 -5 -35 18
-34 118 6 52 21 97 37 100 35 3 -2 16 -24 30 -49 l25 -46 -78 -78 c-80 -81
-99 -122 -55 -122 14 0 47 28 95 80 l75 80 46 -37 c26 -20 51 -40 55 -43 4 -4
-6 -36 -22 -73 -24 -53 -27 -68 -17 -82 19 -27 42 -8 71 61 15 35 28 64 29 64
0 0 23 -7 50 -15 27 -8 62 -15 77 -15 l28 0 3 -147 3 -148 25 0 25 0 3 148 3
147 27 0 c15 0 45 5 66 11 33 9 41 8 48 -5 11 -19 48 -21 49 -3 1 6 2 20 3 29
1 15 67 68 84 68 5 0 23 -16 42 -35 38 -39 51 -43 71 -19 11 13 6 21 -28 56
l-41 41 36 51 c19 28 39 55 43 60 4 4 25 -2 47 -14 74 -42 101 1 30 47 -24 15
-45 28 -47 30 -2 1 2 31 9 67 l12 65 117 3 c108 3 116 4 116 23 0 19 -8 20
-116 23 l-116 3 -11 52 c-5 28 -8 55 -6 58 2 4 31 17 65 29 65 25 81 43 57 66
-12 12 -22 11 -76 -11 -34 -14 -64 -25 -66 -25 -2 0 -18 21 -35 48 -17 26 -36
55 -43 65 -11 15 -8 22 25 53 68 64 27 101 -42 39 l-40 -37 -38 28 c-21 15
-41 31 -46 34 -4 4 11 46 33 95 37 79 40 90 26 103 -22 22 -38 5 -82 -90 -37
-78 -38 -80 -68 -73 -17 4 -48 9 -68 12 l-38 6 0 184 0 184 95 45 c331 154
684 253 1055 293 150 17 626 6 780 -17z m-1990 -527 l0 -165 -24 0 c-44 0
-154 -40 -206 -75 l-52 -35 -70 57 c-38 32 -79 65 -89 73 -19 15 -16 18 63 76
46 33 97 70 114 82 57 39 246 152 255 152 5 0 9 -74 9 -165z m101 -225 c129
-24 253 -119 312 -240 30 -61 32 -72 32 -175 0 -103 -2 -114 -32 -178 -81
-171 -268 -271 -449 -240 -139 24 -257 113 -317 240 -30 64 -32 75 -32 178 0
103 2 114 32 175 70 142 221 242 374 249 15 1 51 -4 80 -9z m3237 -1432 c-75
-371 -93 -448 -104 -448 -8 0 -16 10 -19 23 -6 29 -75 430 -75 440 0 4 46 7
101 7 100 0 101 0 97 -22z m-508 -348 c88 -133 130 -204 123 -211 -6 -6 -70
33 -189 116 -98 69 -186 133 -194 141 -13 12 -6 23 55 84 38 39 70 70 71 70 0
0 61 -90 134 -200z m1024 111 l69 -69 -198 -132 c-117 -78 -203 -129 -212
-126 -8 4 -11 11 -7 18 32 52 267 378 272 378 4 0 38 -31 76 -69z m-714 -87
c25 -137 25 -130 -9 -137 -16 -4 -50 -16 -76 -28 -25 -12 -47 -20 -49 -18 -19
23 -126 190 -126 197 0 20 222 111 238 97 1 -1 11 -51 22 -111z m316 81 c73
-27 134 -62 134 -75 0 -5 -30 -51 -67 -104 l-67 -95 -31 18 c-16 11 -49 25
-72 32 -50 14 -50 12 -23 144 11 53 20 99 20 101 0 11 46 1 106 -21z m-582
-349 l30 -23 -21 -35 c-11 -19 -26 -51 -32 -71 -7 -20 -18 -37 -24 -37 -42 0
-227 45 -227 55 0 26 42 133 72 182 l31 52 71 -50 c39 -27 84 -60 100 -73z
m933 34 c18 -36 39 -88 47 -117 l14 -51 -91 -17 c-51 -9 -106 -18 -123 -21
-29 -5 -31 -3 -43 38 -7 24 -22 58 -34 77 -17 28 -18 35 -6 42 8 4 50 33 94
63 44 30 87 54 95 53 8 -1 29 -31 47 -67z m-450 28 c79 -29 162 -112 191 -191
49 -131 20 -271 -77 -368 -69 -69 -145 -101 -241 -101 -139 0 -271 89 -318
215 -29 78 -29 176 0 254 28 76 114 162 190 192 74 28 179 28 255 -1z m-757
-243 c123 -25 225 -47 228 -50 2 -2 2 -10 -1 -18 -3 -8 -78 -25 -223 -50 -121
-21 -222 -37 -226 -37 -7 0 -12 200 -5 200 2 0 104 -20 227 -45z m1500 -75 c0
-76 -3 -100 -13 -100 -7 0 -111 20 -230 45 -120 25 -220 45 -222 45 -5 0 -7
29 -2 31 34 8 429 77 445 78 21 1 22 -2 22 -99z m-1249 -124 c10 -32 22 -63
28 -69 6 -6 11 -14 11 -19 0 -7 -169 -124 -193 -134 -18 -6 -59 72 -87 164
-12 40 -21 75 -19 76 6 5 222 44 233 42 5 -1 17 -28 27 -60z m895 34 c135 -28
126 -20 108 -82 -18 -60 -55 -144 -76 -172 -15 -19 -19 -17 -112 48 -76 53
-96 72 -90 84 4 10 17 45 28 79 12 35 26 63 32 63 7 0 56 -9 110 -20z m-801
-190 c6 -10 -236 -363 -257 -376 -6 -4 -41 25 -80 63 l-69 69 188 126 c103 70
193 127 200 127 6 1 15 -4 18 -9z m758 -111 c94 -67 179 -128 187 -135 13 -12
6 -23 -57 -86 l-71 -71 -127 191 c-80 120 -125 197 -122 207 4 8 9 15 12 15 3
0 83 -54 178 -121z m-669 42 c17 -11 51 -25 74 -32 39 -11 43 -15 39 -38 -3
-14 -14 -68 -23 -119 l-18 -94 -41 6 c-46 8 -205 83 -205 98 0 11 130 198 138
198 2 0 19 -9 36 -19z m486 -71 c33 -50 63 -97 66 -104 9 -24 -108 -83 -217
-109 l-26 -7 -18 113 c-10 61 -18 116 -19 120 0 4 23 17 53 27 30 11 63 26 75
34 12 8 22 15 23 15 1 1 30 -40 63 -89z m-238 -190 c20 -113 37 -215 37 -227
1 -22 -2 -23 -99 -23 -55 0 -100 4 -100 8 0 9 75 388 85 430 4 15 12 22 23 20
14 -3 24 -41 54 -208z m-219 -76 c32 -7 31 -4 8 -114 -9 -47 -16 -91 -13 -98
2 -8 27 -12 73 -12 l69 0 0 -120 0 -120 -144 0 c-132 0 -144 1 -140 18 2 9 20
107 39 217 46 260 42 247 63 241 9 -3 29 -8 45 -12z m382 -16 c11 -49 75 -418
75 -433 0 -13 -20 -15 -130 -15 l-130 0 0 120 0 120 59 0 c39 0 61 4 64 13 2
7 -1 44 -9 82 -20 103 -18 123 9 128 47 9 57 7 62 -15z m-2495 -356 l275 -178
233 -383 232 -383 0 -799 0 -799 -215 0 -215 0 0 501 c0 326 -4 507 -10 520
-10 19 -30 19 -780 19 -422 0 -775 -3 -784 -6 -14 -5 -16 -61 -16 -520 l0
-514 -220 0 -220 0 0 798 1 797 233 384 234 383 382 248 382 248 106 -69 c59
-38 231 -149 382 -247z m2214 -164 c-22 -36 -127 -173 -132 -171 -3 1 -27 42
-54 92 l-49 91 121 0 c94 0 119 -3 114 -12z m301 -78 c-25 -49 -47 -90 -49
-90 -4 0 -104 139 -120 168 -6 9 18 12 104 12 l110 0 -45 -90z m-521 -57 c25
-45 46 -88 46 -95 -1 -17 -170 -245 -170 -229 0 6 16 99 35 205 19 107 35 197
35 202 0 11 4 6 54 -83z m254 -229 l-3 -107 -60 109 c-33 60 -61 114 -63 121
-2 7 25 52 60 100 l63 87 3 -102 c1 -55 1 -149 0 -208z m132 213 l54 -79 -62
-121 -61 -122 0 210 c-1 115 3 205 7 200 5 -6 33 -45 62 -88z m254 -107 c19
-107 34 -196 32 -197 -2 -2 -39 48 -83 112 l-80 115 44 86 c25 47 46 84 48 82
2 -2 20 -91 39 -198z m-491 -147 c35 -65 70 -128 76 -140 l12 -23 -176 0
c-112 0 -175 4 -173 10 3 10 190 270 194 270 2 0 32 -53 67 -117z m427 -18
c45 -65 84 -125 87 -132 4 -10 -29 -13 -161 -13 -91 0 -166 2 -166 4 0 16 144
276 150 269 4 -4 44 -62 90 -128z m-356 -207 c-17 -28 -186 -243 -192 -245 -7
-3 -152 237 -152 250 0 4 79 7 176 7 137 0 174 -3 168 -12z m456 7 c0 -13
-133 -245 -140 -245 -6 0 -161 200 -184 238 -6 9 29 12 158 12 91 0 166 -2
166 -5z m-756 -194 c62 -106 65 -115 52 -135 -40 -56 -40 -56 -121 -56 -75 0
-77 1 -72 23 3 12 15 78 27 147 25 147 28 156 39 144 4 -5 38 -60 75 -123z
m334 -307 l-3 -145 -50 86 c-29 51 -52 103 -55 128 -4 32 -10 42 -28 47 -12 3
-31 20 -42 37 l-20 33 98 126 97 126 3 -146 c1 -80 1 -211 0 -292z m157 316
c43 -58 82 -110 86 -116 5 -6 -31 -81 -86 -180 l-95 -169 0 295 c0 162 4 290
9 285 4 -6 43 -57 86 -115z m356 -161 c27 -150 47 -274 46 -276 -3 -2 -213
275 -230 303 -8 13 120 260 130 250 2 -2 26 -127 54 -277z m-741 -29 c0 -5 -5
-10 -11 -10 -5 0 -7 5 -4 10 3 6 8 10 11 10 2 0 4 -4 4 -10z m659 -175 l120
-160 -115 -3 c-63 -1 -165 -1 -228 0 l-114 3 96 172 c76 135 100 170 109 160
7 -7 66 -84 132 -172z m-589 -115 l0 -220 -645 0 -645 0 0 220 0 220 645 0
645 0 0 -220z m108 -12 l23 -38 -40 0 -41 0 1 63 c0 61 0 62 17 38 9 -13 27
-42 40 -63z m-3268 -588 l0 -490 -80 0 -80 0 0 490 0 490 80 0 80 0 0 -490z
m1100 0 l0 -490 -520 0 -520 0 0 490 0 490 520 0 520 0 0 -490z m220 0 l0
-490 -80 0 -80 0 0 490 0 490 80 0 80 0 0 -490z m1950 487 c0 -2 -13 -16 -30
-32 l-30 -29 0 32 c0 29 3 32 30 32 17 0 30 -1 30 -3z m504 -114 c-54 -65 -99
-120 -101 -123 -2 -2 -59 51 -126 118 l-122 122 223 0 223 0 -97 -117z m191
-202 c25 -140 44 -256 42 -257 -2 -2 -69 63 -150 144 l-146 147 102 124 c56
68 103 118 104 110 2 -8 23 -128 48 -268z m-647 -137 l-3 -136 -52 62 -53 62
0 163 0 163 53 45 52 46 3 -135 c1 -74 1 -195 0 -270z m273 117 c-21 -25 -73
-89 -115 -141 -43 -52 -82 -99 -87 -104 -5 -6 -9 106 -9 264 l0 275 124 -124
125 -125 -38 -45z m-431 129 l0 -40 -645 0 -645 0 0 40 0 40 645 0 645 0 0
-40z m-4554 -73 c51 -27 102 -93 115 -152 9 -43 9 -61 -5 -109 -9 -31 -14 -61
-11 -66 4 -6 34 -7 75 -4 53 5 80 3 114 -10 53 -20 119 -88 136 -141 16 -48 7
-135 -17 -178 l-19 -32 -282 -3 -282 -2 2 357 3 358 35 5 c44 7 96 -2 136 -23z
m4554 -362 l0 -335 -645 0 -645 0 0 335 0 335 645 0 645 0 0 -335z m670 150
l155 -155 -283 0 c-155 0 -282 2 -282 5 0 8 244 305 250 305 3 0 75 -70 160
-155z m1040 -175 l0 -310 -225 0 -225 0 0 45 c0 57 22 110 63 153 44 47 83 65
147 72 l55 5 -2 35 c-5 115 -3 142 15 182 28 62 106 126 155 128 16 0 17 -21
17 -310z m-1590 27 c0 -4 -15 -7 -32 -5 -31 3 -33 6 -36 43 l-3 40 35 -34 c20
-19 36 -39 36 -44z m40 -202 l0 -135 -55 0 -55 0 0 135 0 135 55 0 55 0 0
-135z m737 10 c12 -66 22 -126 23 -132 0 -10 -76 -13 -350 -13 l-350 0 0 135
0 135 327 -2 328 -3 22 -120z m813 -330 l0 -125 -252 -2 c-245 -3 -253 -4
-253 -23 0 -19 8 -20 253 -23 l252 -2 0 -375 0 -375 -294 0 c-262 0 -295 -2
-300 -16 -16 -41 3 -44 305 -44 l289 0 0 -235 0 -235 -148 0 c-111 0 -153 -4
-167 -14 -16 -12 -17 -16 -6 -30 11 -13 38 -16 167 -16 l154 0 0 -145 0 -145
-3217 2 -3218 3 -3 143 -3 142 170 0 c151 0 170 2 175 17 14 35 -19 43 -186
43 l-158 0 0 235 0 235 114 0 c118 0 144 8 130 44 -5 13 -24 16 -125 16 l-119
0 0 105 0 105 253 2 252 3 0 25 0 25 -253 3 -252 2 2 238 3 237 165 5 c157 5
165 6 165 25 0 19 -8 20 -167 23 l-168 2 0 125 0 125 3220 0 3220 0 0 -125z"/>
<path d="M6931 14052 c-36 -30 -40 -64 -8 -70 24 -5 89 61 81 82 -9 24 -35 19
-73 -12z"/>
<path d="M6319 13893 c-26 -59 -28 -68 -15 -81 21 -21 39 -4 71 65 19 43 22
59 14 69 -22 27 -40 13 -70 -53z"/>
<path d="M6666 13813 c-90 -82 -167 -154 -170 -162 -7 -14 10 -41 25 -41 11 0
330 287 342 307 11 19 1 43 -18 43 -8 0 -89 -66 -179 -147z"/>
<path d="M7412 13828 c3 -23 6 -23 154 -26 132 -2 152 0 158 14 3 9 4 20 0 25
-3 5 -75 9 -160 9 l-155 0 3 -22z"/>
<path d="M7674 13645 c-3 -8 -3 -19 1 -25 4 -6 109 -10 311 -10 l304 0 0 25 0
25 -305 0 c-258 0 -306 -2 -311 -15z"/>
<path d="M8943 13629 c-95 -37 -203 -162 -203 -236 0 -28 -5 -28 -66 -1 -34
15 -69 22 -115 22 -145 0 -261 -105 -276 -249 -7 -66 11 -142 42 -180 22 -28
25 -29 41 -13 16 15 15 19 -5 60 -42 87 -21 201 47 266 87 81 226 79 314 -5
44 -42 62 -29 70 50 14 148 127 251 273 250 139 -1 239 -88 269 -235 l13 -63
70 3 c81 4 130 -12 182 -61 68 -64 88 -156 55 -248 -17 -45 -14 -79 5 -79 37
0 77 115 67 194 -8 74 -50 150 -104 191 -52 40 -135 68 -189 63 -36 -3 -37 -2
-49 46 -27 105 -117 201 -218 231 -68 21 -160 18 -223 -6z"/>
<path d="M6681 13420 c-46 -21 -54 -52 -14 -58 27 -4 83 24 83 42 0 30 -24 35
-69 16z"/>
<path d="M5387 13407 c-8 -20 5 -35 43 -50 41 -17 60 -13 60 14 0 34 -91 66
-103 36z"/>
<path d="M6776 13144 c-3 -9 -4 -20 0 -25 3 -5 79 -9 170 -9 l165 0 -3 23 c-3
22 -6 22 -164 25 -141 2 -162 0 -168 -14z"/>
<path d="M7166 13144 c-11 -29 4 -34 99 -34 95 0 110 5 99 34 -5 13 -23 16
-99 16 -76 0 -94 -3 -99 -16z"/>
<path d="M6584 12885 c-11 -27 2 -39 91 -88 92 -50 118 -55 123 -22 2 16 -17
31 -93 73 -104 57 -113 59 -121 37z"/>
<path d="M5258 12874 c-39 -20 -38 -54 1 -54 37 0 77 31 68 53 -8 21 -33 21
-69 1z"/>
<path d="M6451 12676 c-9 -10 -9 -20 -2 -33 19 -35 270 -275 283 -271 7 3 15
15 16 28 3 19 -22 49 -135 157 -76 73 -141 133 -144 133 -4 0 -12 -6 -18 -14z"/>
<path d="M5352 12556 c-47 -51 -50 -61 -23 -76 17 -8 26 -3 63 36 47 50 54 77
22 82 -14 2 -34 -12 -62 -42z"/>
<path d="M6234 12586 c-8 -20 -1 -49 31 -119 18 -43 30 -57 45 -57 33 0 33 22
-3 106 -33 77 -60 103 -73 70z"/>
<path d="M5649 12445 c-43 -93 -46 -120 -14 -120 15 0 30 19 57 75 40 80 45
123 15 128 -14 3 -27 -16 -58 -83z"/>
<path d="M7674 12445 c-3 -8 -3 -19 1 -25 4 -6 117 -10 336 -10 l329 0 0 25 0
25 -330 0 c-280 0 -331 -2 -336 -15z"/>
<path d="M5138 12330 c-62 -67 -114 -127 -116 -134 -2 -7 4 -19 13 -26 19 -16
27 -9 166 142 66 72 97 112 93 123 -13 33 -46 11 -156 -105z"/>
<path d="M9893 12394 c-3 -8 -1 -20 4 -25 5 -5 90 -8 204 -7 193 3 194 3 197
26 l3 22 -201 0 c-173 0 -201 -2 -207 -16z"/>
<path d="M6331 12371 c-16 -10 -7 -64 15 -81 25 -21 47 -4 40 32 -6 31 -23 58
-35 58 -3 0 -12 -4 -20 -9z"/>
<path d="M6801 12326 c-16 -19 -3 -42 49 -89 43 -40 64 -46 74 -21 8 21 -6 44
-54 87 -45 41 -52 43 -69 23z"/>
<path d="M5987 12314 c-13 -13 -7 -81 8 -94 25 -21 47 6 43 54 -2 32 -7 42
-23 44 -12 2 -24 0 -28 -4z"/>
<path d="M5992 12168 c-19 -19 -16 -262 3 -278 12 -10 18 -10 30 0 12 10 15
39 15 139 0 118 -7 151 -30 151 -3 0 -11 -5 -18 -12z"/>
<path d="M6390 11655 c-10 -12 -10 -18 0 -30 10 -12 41 -15 160 -15 119 0 150
3 160 15 10 12 10 18 0 30 -10 12 -41 15 -160 15 -119 0 -150 -3 -160 -15z"/>
<path d="M6752 11328 l3 -23 275 0 275 0 3 23 3 22 -281 0 -281 0 3 -22z"/>
<path d="M5989 10519 c-244 -149 -454 -281 -466 -292 -33 -34 -577 -919 -577
-942 -1 -14 5 -20 21 -20 19 0 69 76 303 455 154 250 286 460 293 467 7 6 207
131 445 277 l434 264 146 -89 c81 -50 280 -171 442 -270 l295 -180 275 -447
c151 -245 282 -455 291 -466 18 -22 49 -16 49 9 0 8 -129 225 -287 481 l-288
465 -458 280 c-251 153 -461 279 -465 279 -5 0 -208 -122 -453 -271z"/>
<path d="M4917 10583 c-13 -12 -7 -41 9 -47 9 -3 64 -6 124 -6 86 0 112 3 125
16 12 12 13 19 4 30 -9 11 -41 14 -134 14 -67 0 -125 -3 -128 -7z"/>
<path d="M5720 13775 c-10 -13 -7 -28 20 -91 28 -62 37 -74 54 -72 31 4 29 35
-7 108 -34 69 -47 79 -67 55z"/>
<path d="M9119 11417 c-55 -37 -79 -81 -79 -147 0 -171 209 -237 313 -99 57
77 34 188 -53 247 -46 31 -134 31 -181 -1z m149 -47 c94 -58 68 -199 -40 -216
-63 -11 -138 51 -138 114 0 57 64 122 120 122 14 0 40 -9 58 -20z"/>
<path d="M6169 10061 l-264 -188 -3 -264 c-1 -145 0 -274 3 -287 l5 -22 533 2
532 3 0 285 0 284 -260 188 c-143 103 -265 187 -271 188 -7 0 -130 -85 -275
-189z m487 -27 c112 -80 204 -148 204 -150 0 -2 -187 -4 -415 -4 -228 0 -415
3 -415 8 1 9 400 292 412 292 5 0 101 -66 214 -146z m-382 -299 c-49 -52 -93
-94 -98 -92 -5 2 -48 45 -94 95 l-85 92 182 0 182 0 -87 -95z m513 -2 l-97
-98 -97 98 -98 97 195 0 195 0 -98 -97z m-677 -173 c-16 -19 -56 -62 -89 -95
l-61 -59 0 188 0 188 89 -93 89 -94 -28 -35z m290 34 c0 -102 -3 -184 -7 -182
-5 2 -45 42 -91 90 l-83 88 88 95 c48 52 89 95 91 95 1 0 2 -84 2 -186z m240
-3 c0 -3 -40 -47 -90 -96 l-90 -90 0 190 1 190 89 -94 c50 -51 90 -96 90 -100z
m280 2 l0 -188 -95 95 -95 95 92 92 c51 51 94 93 95 93 2 0 3 -84 3 -187z
m-226 -241 c-103 -1 -189 0 -192 3 -3 3 36 48 88 100 l95 95 98 -97 97 -98
-186 -3z m-420 96 l85 -93 -90 -3 c-49 -1 -130 -1 -180 0 l-90 3 86 93 c48 50
90 92 95 92 5 0 47 -42 94 -92z"/>
<path d="M5662 8941 c-8 -5 -12 -17 -10 -27 3 -18 29 -19 769 -22 673 -2 768
0 779 13 10 12 10 18 0 30 -11 13 -109 15 -769 15 -416 0 -762 -4 -769 -9z"/>
<path d="M8032 8188 c-14 -14 -17 -404 -4 -426 7 -9 82 -12 343 -10 l334 3 3
209 c2 145 -1 213 -9 222 -16 19 -648 21 -667 2z m533 -56 c-6 -5 -52 -35
-104 -67 l-93 -58 -32 18 c-17 10 -65 40 -106 67 l-75 48 210 0 c115 0 205 -4
200 -8z m-366 -88 c58 -37 107 -68 109 -69 2 -2 -148 -99 -215 -139 -10 -6
-13 24 -13 133 0 78 3 141 6 141 4 0 54 -30 113 -66z m451 -75 l0 -141 -32 21
c-18 11 -68 42 -111 68 -42 27 -76 52 -74 56 3 9 197 135 210 136 4 1 7 -62 7
-140z m-147 -116 c37 -24 67 -45 67 -48 0 -3 -93 -5 -207 -5 -138 0 -204 3
-197 10 5 5 53 37 104 69 l95 60 35 -22 c19 -11 65 -40 103 -64z"/>
<path d="M4734 7345 c-11 -28 10 -36 82 -33 61 3 69 5 69 23 0 18 -8 20 -73
23 -59 2 -73 0 -78 -13z"/>
<path d="M5090 7335 l0 -25 306 0 305 0 -3 23 -3 22 -302 3 -303 2 0 -25z"/>
<path d="M6007 7353 c-4 -3 -7 -15 -7 -25 0 -17 25 -18 614 -18 482 0 615 3
618 13 14 37 15 37 -611 37 -334 0 -611 -3 -614 -7z"/>
<path d="M7644 7345 c-11 -29 7 -35 106 -35 100 0 115 5 104 34 -9 22 -202 24
-210 1z"/>
<path d="M8083 7344 c-3 -8 -1 -20 4 -25 5 -5 126 -8 299 -7 281 3 289 4 289
23 0 19 -8 20 -293 23 -259 2 -293 0 -299 -14z"/>
<path d="M9043 7344 c-3 -8 -1 -20 4 -25 5 -5 162 -8 394 -7 376 3 384 3 384
23 0 20 -8 20 -388 23 -345 2 -388 1 -394 -14z"/>
<path d="M4482 7068 l3 -23 261 -3 c233 -2 262 -1 268 14 3 9 4 20 0 25 -3 5
-122 9 -270 9 l-265 0 3 -22z"/>
<path d="M5162 7068 c3 -22 7 -23 117 -26 116 -3 136 3 124 35 -4 10 -34 13
-125 13 -118 0 -119 0 -116 -22z"/>
<path d="M5527 7077 c-14 -36 0 -37 454 -35 436 3 444 3 444 23 0 20 -8 20
-446 23 -368 2 -448 0 -452 -11z"/>
<path d="M6603 7074 c-11 -28 13 -35 118 -32 99 3 104 4 107 26 3 22 2 22
-108 22 -91 0 -112 -3 -117 -16z"/>
<path d="M6952 7068 l3 -23 265 0 c258 0 265 1 265 20 0 19 -8 20 -268 23
l-268 2 3 -22z"/>
<path d="M7644 7075 c-3 -8 -3 -19 1 -25 10 -16 1251 -14 1257 3 14 37 15 37
-628 37 -537 0 -625 -2 -630 -15z"/>
<path d="M9183 7075 c-11 -30 12 -36 133 -33 111 3 119 4 119 23 0 19 -8 20
-123 23 -105 2 -123 0 -129 -13z"/>
<path d="M9542 7068 l3 -23 431 -3 c388 -2 432 -1 438 14 3 9 4 20 0 25 -3 5
-190 9 -440 9 l-435 0 3 -22z"/>
<path d="M5074 6815 c-4 -8 -4 -22 0 -30 5 -13 59 -15 428 -13 l423 3 0 25 0
25 -423 3 c-369 2 -423 0 -428 -13z"/>
<path d="M6034 6815 c-14 -35 3 -45 79 -45 54 0 78 4 87 15 25 30 -5 45 -87
45 -56 0 -75 -4 -79 -15z"/>
<path d="M6364 6815 c-4 -8 -4 -22 0 -30 5 -13 45 -15 308 -13 l303 3 0 25 0
25 -303 3 c-263 2 -303 0 -308 -13z"/>
<path d="M7290 6815 c-10 -12 -10 -18 0 -30 11 -13 76 -15 477 -15 405 0 464
2 469 15 4 8 1 22 -6 30 -19 23 -921 22 -940 0z"/>
<path d="M8350 6815 c-24 -29 5 -45 80 -45 75 0 104 16 80 45 -9 11 -32 15
-80 15 -48 0 -71 -4 -80 -15z"/>
<path d="M8662 6818 c-19 -19 -14 -37 11 -43 12 -3 159 -4 327 -3 l305 3 0 25
0 25 -315 3 c-237 2 -319 -1 -328 -10z"/>
<path d="M9870 6815 c-10 -12 -10 -18 0 -30 10 -13 50 -15 240 -15 190 0 230
2 240 15 10 12 10 18 0 30 -10 13 -50 15 -240 15 -190 0 -230 -2 -240 -15z"/>
<path d="M10464 6815 c-13 -33 4 -45 64 -45 67 0 95 18 72 45 -8 10 -31 15
-72 15 -43 0 -60 -4 -64 -15z"/>
<path d="M4674 6545 c-4 -8 -1 -22 6 -30 19 -22 841 -22 860 0 7 8 10 22 6 30
-5 13 -61 15 -436 15 -375 0 -431 -2 -436 -15z"/>
<path d="M5757 6553 c-13 -12 -7 -41 9 -47 9 -3 46 -6 84 -6 71 0 98 14 86 45
-4 12 -24 15 -89 15 -46 0 -87 -3 -90 -7z"/>
<path d="M6057 6554 c-13 -13 -7 -42 9 -48 24 -9 347 -7 362 3 8 5 12 17 10
27 -3 18 -16 19 -189 22 -102 1 -188 -1 -192 -4z"/>
<path d="M6564 6545 c-4 -8 -1 -22 6 -30 19 -23 961 -23 980 0 7 8 10 22 6 30
-5 13 -67 15 -496 15 -429 0 -491 -2 -496 -15z"/>
<path d="M7860 6545 c-10 -12 -10 -18 0 -30 18 -21 172 -21 190 0 7 8 10 22 6
30 -8 22 -178 22 -196 0z"/>
<path d="M8184 6545 c-4 -8 -1 -22 6 -30 11 -13 72 -15 421 -15 361 0 409 2
424 16 12 12 13 19 4 30 -9 12 -84 14 -431 14 -364 0 -419 -2 -424 -15z"/>
<path d="M9297 6554 c-13 -13 -7 -42 9 -48 24 -9 137 -7 152 3 8 5 12 17 10
27 -3 16 -14 19 -84 22 -44 1 -83 0 -87 -4z"/>
<path d="M9567 6554 c-13 -13 -7 -42 9 -48 24 -9 427 -7 442 3 8 5 12 17 10
27 -3 18 -17 19 -229 22 -124 1 -228 -1 -232 -4z"/>
<path d="M4403 6275 c-3 -9 -1 -21 4 -26 5 -5 111 -8 259 -7 241 3 249 4 249
23 0 19 -8 20 -253 23 -223 2 -253 0 -259 -13z"/>
<path d="M5040 6265 l0 -26 88 3 c79 3 87 5 87 23 0 18 -8 20 -87 23 l-88 3 0
-26z"/>
<path d="M5364 6275 c-11 -28 10 -36 87 -33 66 3 74 5 74 23 0 18 -8 20 -78
23 -64 2 -78 0 -83 -13z"/>
<path d="M5650 6265 l0 -25 328 2 c319 3 327 3 327 23 0 20 -8 20 -327 23
l-328 2 0 -25z"/>
<path d="M6627 6283 c-4 -3 -7 -15 -7 -25 0 -17 16 -18 358 -16 349 3 357 3
357 23 0 20 -8 20 -351 23 -193 1 -353 -1 -357 -5z"/>
<path d="M7557 6277 c-12 -30 8 -38 94 -35 76 3 84 5 84 23 0 18 -8 20 -86 23
-66 2 -88 0 -92 -11z"/>
<path d="M7910 6265 l0 -25 333 2 c324 3 332 3 332 23 0 20 -8 20 -332 23
l-333 2 0 -25z"/>
<path d="M8704 6275 c-3 -8 -3 -19 1 -25 4 -7 144 -10 426 -10 l419 0 0 25 0
25 -420 0 c-359 0 -421 -2 -426 -15z"/>
<path d="M9674 6275 c-11 -28 10 -36 82 -33 61 3 69 5 69 23 0 18 -8 20 -73
23 -59 2 -73 0 -78 -13z"/>
<path d="M9944 6275 c-13 -32 7 -35 207 -35 l199 0 0 25 0 25 -200 0 c-166 0
-202 -2 -206 -15z"/>
<path d="M4886 6017 c-11 -8 -15 -19 -10 -30 5 -15 17 -17 83 -15 65 3 76 6
79 22 2 10 -2 22 -10 27 -20 13 -122 11 -142 -4z"/>
<path d="M5170 6015 c-7 -8 -10 -22 -6 -30 5 -13 52 -15 350 -15 316 0 344 1
350 17 16 40 -12 43 -355 43 -277 0 -328 -2 -339 -15z"/>
<path d="M6015 6016 c-16 -12 -17 -16 -6 -30 19 -22 139 -23 147 -1 4 8 1 22
-6 30 -16 19 -109 20 -135 1z"/>
<path d="M6276 6017 c-11 -8 -15 -19 -10 -30 6 -16 51 -17 717 -15 688 3 712
4 715 22 2 10 -2 22 -10 27 -7 5 -324 9 -704 9 -544 0 -694 -3 -708 -13z"/>
<path d="M7866 6017 c-11 -8 -15 -19 -10 -30 5 -14 20 -17 99 -17 102 0 131
13 100 44 -21 20 -162 23 -189 3z"/>
<path d="M8375 6014 c-12 -13 -13 -19 -4 -30 10 -12 67 -14 338 -12 310 3 326
4 329 22 2 10 -2 22 -10 27 -7 5 -153 9 -325 9 -273 0 -314 -2 -328 -16z"/>
<path d="M9150 6015 c-7 -8 -10 -22 -6 -30 4 -13 35 -15 191 -15 156 0 187 2
191 15 4 8 1 22 -6 30 -10 12 -44 15 -185 15 -141 0 -175 -3 -185 -15z"/>
<path d="M9676 6017 c-11 -8 -15 -19 -10 -30 6 -16 23 -17 183 -15 163 3 176
4 179 22 2 10 -2 22 -10 27 -22 14 -321 11 -342 -4z"/>
<path d="M10186 6017 c-11 -8 -15 -19 -10 -30 8 -23 112 -25 120 -2 15 38 -68
63 -110 32z"/>
<path d="M4993 4815 c-238 -52 -397 -245 -411 -500 -11 -206 54 -370 194 -485
95 -78 204 -114 349 -113 158 0 270 46 376 152 134 135 188 337 144 546 -62
295 -343 467 -652 400z m281 -89 c149 -73 238 -256 239 -486 0 -163 -33 -262
-116 -348 -137 -142 -382 -145 -520 -7 -144 144 -200 471 -112 662 45 100 144
181 249 203 77 17 200 5 260 -24z"/>
<path d="M11240 4814 c-256 -55 -424 -295 -406 -579 15 -253 154 -434 381
-501 80 -23 230 -23 310 0 185 54 326 202 370 388 19 81 19 226 0 307 -34 143
-143 284 -267 345 -108 53 -258 68 -388 40z m236 -69 c27 -8 70 -28 96 -44
175 -111 253 -484 149 -707 -53 -114 -142 -181 -271 -204 -249 -45 -437 139
-469 461 -32 310 115 504 385 508 33 1 83 -6 110 -14z"/>
<path d="M12739 4817 c-96 -27 -175 -91 -207 -167 -22 -53 -19 -150 8 -204 33
-69 98 -119 269 -205 86 -44 175 -93 198 -110 83 -60 107 -164 58 -247 -33
-57 -109 -95 -204 -102 -144 -10 -230 44 -293 184 -23 51 -38 74 -50 74 -16 0
-18 -12 -18 -114 0 -124 3 -131 61 -161 37 -20 137 -42 225 -49 178 -17 352
55 411 167 9 18 18 62 21 99 10 149 -52 222 -296 347 -220 112 -282 170 -282
261 0 73 53 139 128 160 59 16 162 12 207 -9 54 -25 78 -54 115 -134 22 -50
35 -67 50 -67 19 0 20 7 20 100 0 90 -2 101 -22 120 -56 52 -296 86 -399 57z"/>
<path d="M1750 4800 c0 -13 11 -19 46 -25 89 -13 84 17 84 -505 0 -447 -1
-461 -20 -480 -11 -11 -33 -20 -49 -20 -16 0 -36 -3 -45 -6 -17 -7 -22 -34 -6
-34 6 0 93 0 195 0 102 0 190 0 195 0 16 0 11 27 -6 34 -9 3 -33 6 -54 6 -21
0 -47 8 -59 18 -21 16 -22 23 -19 212 l3 195 155 5 c143 5 160 8 218 35 75 34
143 104 166 172 18 53 21 141 6 195 -15 52 -67 117 -120 150 -76 46 -141 56
-427 61 -249 5 -263 5 -263 -13z m556 -85 c82 -40 124 -109 124 -203 0 -70
-21 -123 -66 -169 -56 -55 -116 -73 -251 -73 l-103 0 2 227 3 227 25 14 c43
23 200 9 266 -23z"/>
<path d="M3100 4801 c0 -15 11 -20 46 -26 89 -13 84 17 84 -505 0 -447 -1
-461 -20 -480 -11 -11 -33 -20 -49 -20 -16 0 -36 -3 -45 -6 -17 -7 -22 -34 -6
-34 6 0 93 0 195 0 102 0 190 0 195 0 16 0 11 27 -6 34 -9 3 -32 6 -53 6 -20
0 -47 7 -59 16 -22 15 -22 19 -22 235 l0 219 84 0 c102 0 80 24 260 -277 70
-117 135 -217 145 -222 9 -6 62 -10 117 -11 129 -2 124 -2 124 14 0 16 -21 26
-53 26 -51 0 -83 37 -211 241 -71 112 -137 211 -148 220 -20 16 -19 16 21 23
149 23 255 143 255 285 0 150 -116 257 -287 267 -40 2 -183 6 -319 8 -236 5
-248 4 -248 -13z m598 -87 c63 -31 96 -72 112 -136 24 -95 -20 -187 -113 -235
-49 -26 -60 -27 -192 -28 l-140 0 -3 199 c-2 138 1 203 9 212 9 11 43 14 143
14 122 0 136 -2 184 -26z"/>
<path d="M6220 4800 c0 -13 11 -19 46 -25 89 -13 84 17 84 -505 0 -522 5 -491
-84 -504 -36 -6 -46 -11 -44 -24 3 -14 30 -15 262 -13 143 1 283 6 310 11 209
34 374 193 426 410 16 66 16 216 1 284 -28 119 -116 239 -223 303 -97 59 -177
71 -495 76 -266 4 -283 4 -283 -13z m648 -99 c141 -76 222 -242 222 -451 0
-203 -73 -341 -218 -412 -64 -32 -72 -33 -207 -36 -132 -4 -141 -2 -162 18
l-23 21 0 429 c0 423 0 430 21 451 20 20 30 21 162 17 140 -3 143 -4 205 -37z"/>
<path d="M7795 4812 c-16 -16 1 -31 43 -37 86 -13 82 6 82 -369 0 -360 5 -407
57 -494 130 -224 480 -266 666 -80 59 59 93 131 107 223 5 39 10 208 10 376 0
345 -4 326 79 344 30 7 46 15 46 25 0 23 -299 21 -303 -2 -2 -11 7 -18 31 -22
70 -13 68 -3 65 -397 l-3 -354 -29 -53 c-51 -91 -130 -139 -249 -149 -139 -12
-261 48 -313 154 l-29 58 -3 351 c-3 391 -7 368 67 389 20 6 36 17 36 25 0 13
-28 15 -178 16 -97 0 -179 -2 -182 -4z"/>
<path d="M9385 4798 c-2 -7 -6 -62 -7 -123 -3 -97 -1 -110 14 -113 13 -2 25
11 43 51 14 30 42 69 61 88 l35 34 122 0 122 0 3 -462 c2 -452 2 -463 -18
-483 -12 -12 -33 -20 -54 -20 -19 0 -41 -3 -50 -6 -17 -7 -22 -34 -6 -34 6 0
91 0 190 0 99 0 185 0 190 0 16 0 11 27 -6 34 -9 3 -29 6 -45 6 -16 0 -38 9
-49 20 -19 19 -20 33 -20 469 0 247 3 456 6 465 8 22 201 23 243 1 37 -19 76
-65 100 -120 15 -33 25 -45 42 -45 21 0 21 2 14 108 -4 59 -11 115 -16 125 -9
16 -41 17 -460 17 -351 0 -451 -3 -454 -12z"/>
<path d="M4241 2933 c-5 -10 -95 -232 -201 -493 -106 -261 -198 -487 -206
-501 -13 -27 -49 -46 -94 -51 -16 -2 -25 -9 -25 -21 0 -17 12 -18 143 -18 78
0 147 1 152 1 6 0 10 6 10 14 0 15 -21 26 -49 26 -10 0 -26 9 -35 19 -17 19
-16 25 30 147 27 70 55 133 62 141 10 10 60 13 215 13 111 0 207 -4 214 -8 6
-4 34 -67 62 -141 49 -126 51 -135 35 -152 -10 -11 -27 -19 -38 -19 -28 0 -49
-15 -44 -30 3 -9 51 -12 182 -11 98 0 181 3 184 5 14 15 -11 36 -43 36 -24 0
-43 8 -58 23 -13 13 -100 213 -206 477 -238 591 -224 560 -255 560 -14 0 -29
-8 -35 -17z m99 -412 c50 -128 88 -236 85 -242 -4 -5 -83 -9 -181 -9 -133 0
-176 3 -180 13 -2 7 32 107 77 222 45 116 85 221 90 234 5 13 12 22 14 19 2
-2 45 -109 95 -237z"/>
<path d="M12272 2938 c-6 -7 -101 -236 -211 -508 -208 -511 -222 -540 -276
-540 -13 0 -30 -3 -39 -6 -17 -7 -22 -34 -6 -34 6 0 73 -1 150 -1 77 0 145 1
150 1 16 0 11 27 -6 34 -9 3 -26 6 -38 6 -26 0 -46 18 -46 42 0 30 90 252 107
266 12 9 72 12 213 12 142 0 201 -3 212 -12 16 -13 108 -242 108 -269 0 -22
-20 -39 -46 -39 -12 0 -29 -3 -38 -6 -17 -7 -22 -34 -6 -34 6 0 87 -1 180 -1
94 0 175 1 180 1 16 0 11 27 -6 34 -9 3 -26 6 -39 6 -54 0 -68 28 -275 539
-110 271 -205 500 -211 507 -14 17 -43 18 -57 2z m93 -416 c48 -123 84 -230
81 -238 -4 -11 -37 -14 -180 -14 -96 0 -177 4 -180 8 -7 12 177 483 185 475 4
-5 46 -108 94 -231z"/>
<path d="M2194 2929 c-10 -16 5 -27 50 -33 87 -13 81 26 81 -499 0 -531 5
-500 -86 -512 -39 -5 -49 -11 -47 -23 3 -15 31 -16 268 -13 375 3 447 22 580
147 116 110 170 242 170 416 0 163 -42 272 -144 373 -68 67 -143 108 -238 129
-73 16 -625 29 -634 15z m637 -101 c108 -50 189 -164 223 -315 63 -279 -50
-520 -269 -578 -82 -21 -272 -21 -303 1 l-22 15 0 436 c0 400 1 438 17 456 16
17 30 18 158 15 126 -3 145 -6 196 -30z"/>
<path d="M7480 2923 c0 -17 9 -22 48 -28 88 -13 82 23 82 -502 0 -450 -1 -464
-20 -483 -11 -11 -33 -20 -49 -20 -16 0 -36 -3 -45 -6 -19 -7 -22 -34 -3 -34
229 -4 784 3 797 10 10 6 21 18 25 29 11 36 34 195 29 203 -12 20 -42 6 -54
-24 -21 -53 -58 -97 -103 -121 -38 -20 -59 -22 -217 -25 -167 -3 -177 -3 -203
18 l-27 21 0 205 0 204 170 0 c165 0 170 -1 184 -22 7 -13 17 -40 20 -61 5
-29 11 -37 24 -35 15 3 17 20 17 147 0 161 -11 186 -44 108 -11 -25 -29 -51
-40 -57 -13 -7 -76 -10 -173 -8 l-153 3 -3 187 c-3 246 -20 228 211 228 159 0
176 -2 217 -22 35 -18 50 -34 70 -75 26 -54 46 -71 63 -54 14 14 -8 167 -28
198 l-15 23 -299 0 c-164 0 -339 3 -389 6 -88 7 -92 6 -92 -13z"/>
<path d="M8890 2921 c0 -15 11 -20 46 -26 89 -13 84 17 84 -505 0 -447 -1
-461 -20 -480 -11 -11 -33 -20 -49 -20 -16 0 -36 -3 -45 -6 -17 -7 -22 -34 -6
-34 6 0 93 0 195 0 102 0 190 0 195 0 16 0 11 27 -6 34 -9 3 -32 6 -53 6 -20
0 -47 7 -59 16 -22 15 -22 19 -22 235 l0 219 84 0 c102 0 80 24 260 -277 70
-117 135 -217 145 -222 9 -6 62 -10 117 -11 129 -2 124 -2 124 14 0 16 -21 26
-53 26 -51 0 -83 37 -211 241 -71 112 -137 211 -148 220 -20 16 -19 16 21 23
149 23 255 143 255 285 0 150 -116 257 -287 267 -40 2 -183 6 -319 8 -236 5
-248 4 -248 -13z m598 -87 c63 -31 96 -72 112 -136 24 -95 -20 -187 -113 -235
-49 -26 -60 -27 -192 -28 l-140 0 -3 199 c-2 138 1 203 9 212 9 11 43 14 143
14 122 0 136 -2 184 -26z"/>
<path d="M10346 2932 c-17 -16 -1 -30 42 -37 88 -13 82 23 82 -505 0 -440 -1
-468 -18 -483 -10 -10 -32 -17 -48 -17 -36 0 -73 -23 -55 -34 9 -6 247 -9 394
-6 4 0 7 6 7 14 0 18 -22 26 -71 26 -26 0 -46 7 -59 20 -19 19 -20 33 -20 235
l0 215 83 0 c74 0 86 -3 104 -22 11 -13 82 -125 157 -249 75 -125 143 -229
150 -232 12 -5 174 -10 224 -8 23 2 12 31 -13 36 -14 3 -37 7 -51 10 -39 9
-60 35 -188 240 -65 105 -130 200 -145 212 l-26 23 27 0 c55 0 138 41 193 94
42 42 57 65 70 111 34 117 -3 228 -99 293 -81 54 -121 60 -443 65 -160 3 -294
2 -297 -1z m589 -96 c58 -27 88 -57 110 -108 50 -121 -31 -259 -168 -288 -30
-6 -103 -9 -163 -8 l-109 3 -3 193 c-1 121 1 200 8 212 10 18 21 20 143 20
118 0 137 -3 182 -24z"/>
<path d="M6064 2918 c-9 -14 -22 -207 -16 -226 9 -27 45 -8 59 32 19 55 60
106 99 122 21 9 70 14 133 14 89 0 101 -2 111 -19 6 -13 10 -176 10 -461 l0
-441 -25 -24 c-16 -17 -35 -25 -59 -25 -19 0 -41 -3 -50 -6 -17 -7 -22 -34 -6
-34 6 0 93 0 195 0 102 0 190 0 195 0 16 0 11 27 -6 34 -9 3 -28 6 -44 6 -15
0 -37 8 -49 18 -21 17 -21 18 -19 482 l3 465 102 3 c71 2 112 -2 136 -12 40
-16 78 -63 102 -124 14 -34 22 -42 39 -40 20 3 21 8 17 83 -2 44 -6 98 -10
120 l-6 40 -452 3 c-340 2 -454 -1 -459 -10z"/>
<path d="M1135 1033 c-9 -21 -48 -117 -87 -213 -87 -217 -94 -230 -118 -230
-10 0 -22 -4 -25 -10 -4 -6 22 -10 69 -10 42 0 76 2 76 5 0 3 -12 10 -26 15
-28 11 -27 17 7 98 l18 42 99 0 99 0 22 -56 c25 -66 26 -84 7 -84 -8 0 -18 -4
-21 -10 -4 -6 26 -10 81 -10 53 0 84 4 79 9 -6 5 -19 11 -30 13 -16 2 -40 52
-116 238 -52 128 -101 236 -107 238 -6 2 -18 -14 -27 -35z m54 -157 c23 -58
41 -107 41 -110 0 -3 -39 -6 -86 -6 -78 0 -85 2 -79 18 4 9 23 59 42 110 20
50 37 92 39 92 1 0 21 -47 43 -104z"/>
<path d="M1891 1059 c-60 -12 -127 -53 -156 -97 -84 -128 -43 -306 86 -372 70
-36 147 -35 240 4 11 5 24 -1 38 -15 12 -13 21 -19 22 -13 0 5 1 52 2 104 2
88 4 96 25 105 12 5 22 12 22 15 0 3 -40 6 -90 7 -49 0 -90 -3 -90 -8 0 -5 13
-9 30 -9 35 0 50 -23 50 -79 0 -60 -32 -92 -98 -99 -65 -6 -93 1 -133 35 -49
41 -79 115 -79 193 1 103 35 162 113 195 77 32 156 8 190 -57 26 -53 39 -47
35 15 -3 50 -4 52 -38 63 -55 18 -121 23 -169 13z"/>
<path d="M3830 1059 c-60 -12 -118 -54 -155 -114 -27 -43 -30 -57 -30 -129 0
-87 14 -126 64 -179 77 -84 219 -98 309 -30 47 36 30 46 -31 18 -28 -14 -67
-25 -86 -25 -74 0 -149 60 -180 143 -17 45 -13 147 8 193 41 91 157 132 231
82 19 -13 41 -38 49 -56 21 -46 31 -40 31 19 0 47 -2 51 -32 63 -46 19 -125
25 -178 15z"/>
<path d="M8183 1058 c-6 -7 -50 -110 -98 -228 -48 -118 -92 -221 -97 -227 -6
-7 -19 -13 -29 -13 -11 0 -19 -4 -19 -10 0 -6 30 -10 70 -10 75 0 85 5 45 20
l-25 9 24 63 23 63 100 3 100 3 22 -52 c25 -60 27 -89 7 -89 -8 0 -18 -4 -21
-10 -4 -6 26 -10 81 -10 53 0 84 4 79 9 -6 5 -19 11 -29 13 -15 2 -41 57 -112
232 -52 126 -97 233 -102 238 -5 5 -13 3 -19 -4z m41 -186 c20 -50 36 -97 36
-102 0 -6 -34 -10 -80 -10 -54 0 -80 4 -80 12 0 22 75 207 81 200 3 -4 22 -49
43 -100z"/>
<path d="M9984 1058 c-5 -7 -49 -112 -99 -233 -79 -194 -94 -222 -120 -235
l-30 -15 38 -3 c20 -2 54 -1 75 1 32 3 34 5 15 12 -29 9 -29 28 -2 94 l22 52
99 -3 100 -3 24 -59 c24 -59 24 -76 -1 -76 -8 0 -17 -4 -20 -10 -4 -6 25 -10
79 -10 51 0 86 4 86 10 0 6 -9 10 -20 10 -28 0 -39 21 -130 250 -84 212 -101
243 -116 218z m76 -285 c0 -9 -23 -13 -80 -13 -44 0 -80 4 -80 9 0 9 68 189
78 205 5 9 82 -179 82 -201z"/>
<path d="M13225 1033 c-9 -21 -48 -117 -87 -213 -87 -217 -94 -230 -118 -230
-10 0 -22 -4 -25 -10 -4 -6 22 -10 69 -10 42 0 76 2 76 5 0 3 -12 10 -26 15
-28 11 -27 17 7 98 l18 42 99 0 99 0 22 -56 c25 -66 26 -84 7 -84 -8 0 -18 -4
-21 -10 -4 -6 26 -10 81 -10 53 0 84 4 79 9 -6 5 -19 11 -30 13 -16 2 -40 52
-116 238 -52 128 -101 236 -107 238 -6 2 -18 -14 -27 -35z m54 -157 c23 -58
41 -107 41 -110 0 -3 -39 -6 -86 -6 -78 0 -85 2 -79 18 4 9 23 59 42 110 20
50 37 92 39 92 1 0 21 -47 43 -104z"/>
<path d="M2455 1052 c6 -6 19 -12 30 -14 19 -3 20 -11 20 -223 l0 -220 -22 -3
c-13 -2 -23 -8 -23 -13 0 -5 41 -9 92 -9 56 0 88 4 83 9 -6 5 -21 11 -35 13
-25 3 -25 5 -28 106 l-3 103 43 -3 42 -3 66 -110 66 -110 58 -3 c39 -2 56 0
51 7 -3 6 -15 11 -26 11 -14 0 -39 30 -87 103 -37 56 -68 105 -70 108 -1 4 11
9 27 12 77 16 122 107 87 175 -29 56 -63 66 -231 70 -98 2 -147 0 -140 -6z
m297 -61 c25 -28 29 -40 25 -68 -4 -19 -12 -42 -19 -50 -21 -26 -74 -43 -133
-43 l-55 0 0 93 c0 52 3 97 8 101 4 4 38 6 76 4 63 -3 71 -7 98 -37z"/>
<path d="M3160 1051 c0 -5 12 -11 28 -13 l27 -3 3 -218 2 -217 -27 -12 c-27
-12 -27 -13 20 -16 26 -2 67 -2 90 0 40 4 39 8 -8 23 -13 4 -15 37 -15 220 l0
215 25 10 c14 5 25 12 25 15 0 3 -38 5 -85 5 -47 0 -85 -4 -85 -9z"/>
<path d="M4350 1051 c0 -5 12 -11 28 -13 l27 -3 5 -176 c5 -169 6 -177 32
-216 58 -88 195 -107 278 -37 57 48 63 73 69 259 6 167 6 170 29 173 48 7 19
22 -43 22 -63 0 -86 -12 -45 -23 19 -5 20 -13 20 -169 0 -109 -4 -171 -13
-187 -45 -88 -195 -93 -247 -9 -18 30 -20 50 -20 196 l0 162 25 10 c14 5 25
12 25 15 0 3 -38 5 -85 5 -47 0 -85 -4 -85 -9z"/>
<path d="M5140 1051 c0 -5 10 -11 23 -13 l22 -3 0 -220 0 -220 -22 -3 c-13 -2
-23 -8 -23 -13 0 -11 347 -13 353 -1 12 18 19 102 9 102 -6 0 -14 -9 -17 -21
-12 -37 -63 -59 -140 -59 -42 0 -76 5 -83 12 -13 13 -18 381 -6 412 3 9 15 16
25 16 10 0 19 5 19 10 0 6 -33 10 -80 10 -44 0 -80 -4 -80 -9z"/>
<path d="M5776 1009 c-9 -67 6 -84 30 -34 20 42 51 57 108 53 l41 -3 0 -215 0
-215 -25 -3 c-14 -2 -29 -8 -34 -13 -6 -5 26 -9 82 -9 51 0 92 4 92 9 0 5 -10
11 -22 13 -23 3 -23 3 -26 221 l-2 217 45 0 c57 0 80 -12 100 -50 21 -41 35
-37 35 9 0 74 11 71 -215 71 l-202 0 -7 -51z"/>
<path d="M6476 1051 c5 -5 18 -11 29 -13 19 -3 20 -13 25 -173 3 -94 11 -182
17 -196 17 -38 77 -87 124 -99 78 -21 165 10 207 73 26 39 27 47 32 216 5 166
6 176 25 179 11 2 24 8 29 13 6 5 -19 9 -62 9 -74 0 -89 -8 -49 -25 21 -10 22
-14 22 -172 0 -148 -2 -164 -21 -190 -62 -85 -202 -81 -246 7 -15 29 -18 63
-18 193 l0 157 25 10 c14 5 25 12 25 15 0 3 -39 5 -87 5 -52 0 -83 -4 -77 -9z"/>
<path d="M7260 1050 c0 -5 8 -10 18 -10 39 0 42 -17 42 -221 0 -109 -3 -204
-6 -213 -3 -9 -14 -16 -24 -16 -11 0 -22 -4 -25 -10 -4 -6 27 -10 85 -10 58 0
89 4 85 10 -3 6 -14 10 -24 10 -34 0 -42 24 -39 117 l3 88 40 3 40 3 59 -98
c81 -133 80 -133 138 -133 26 0 48 5 48 10 0 6 -8 10 -18 10 -10 0 -28 10 -39
23 -20 22 -123 184 -123 192 0 3 8 5 18 5 9 0 30 9 46 19 89 59 70 189 -32
219 -49 15 -292 16 -292 2z m265 -34 c39 -17 55 -42 55 -89 0 -66 -61 -102
-160 -95 l-45 3 -3 77 c-4 103 5 118 69 118 27 0 65 -6 84 -14z"/>
<path d="M9120 1050 c0 -5 8 -10 18 -10 39 0 42 -17 42 -221 0 -109 -3 -204
-6 -213 -3 -9 -17 -16 -30 -16 -13 0 -24 -4 -24 -10 0 -6 35 -10 85 -10 50 0
85 4 85 10 0 6 -11 10 -25 10 -31 0 -37 21 -33 125 l3 80 73 3 73 3 14 -33 c8
-18 15 -31 15 -28 5 23 5 132 -1 135 -3 3 -11 -7 -18 -21 -10 -24 -14 -25 -83
-22 l-73 3 -3 81 c-4 104 5 114 93 114 78 0 112 -12 127 -45 17 -38 35 -31 30
13 -2 20 -9 43 -14 50 -13 15 -348 18 -348 2z"/>
<path d="M10530 1055 c0 -3 12 -10 26 -15 l27 -10 -8 -213 c-4 -116 -9 -215
-12 -219 -2 -5 -13 -8 -23 -8 -10 0 -22 -4 -25 -10 -4 -6 20 -10 64 -10 68 0
94 12 51 23 -19 5 -20 14 -20 178 0 95 3 169 7 166 3 -4 48 -87 98 -184 51
-97 96 -178 101 -180 5 -2 52 83 104 188 l95 190 6 -98 c4 -54 7 -133 8 -176
1 -74 0 -78 -24 -87 -14 -5 -25 -12 -25 -15 0 -3 36 -5 80 -5 47 0 80 4 80 10
0 6 -9 10 -20 10 -34 0 -40 40 -40 247 0 186 1 195 20 200 34 9 22 23 -19 23
-22 0 -46 -6 -53 -13 -7 -8 -54 -98 -103 -200 -50 -103 -92 -187 -95 -187 -3
0 -50 89 -105 198 l-100 197 -47 3 c-27 2 -48 0 -48 -3z"/>
<path d="M11430 1051 c0 -5 12 -11 28 -13 l27 -3 3 -218 2 -217 -27 -12 c-27
-12 -27 -13 20 -16 26 -2 67 -2 90 0 40 4 39 8 -8 23 -13 4 -15 37 -15 220 l0
215 25 10 c14 5 25 12 25 15 0 3 -38 5 -85 5 -47 0 -85 -4 -85 -9z"/>
<path d="M11900 1051 c0 -5 10 -11 23 -13 l22 -3 0 -220 0 -220 -22 -3 c-13
-2 -23 -8 -23 -13 0 -11 347 -13 353 -1 12 18 19 102 9 102 -6 0 -14 -9 -17
-21 -12 -37 -63 -59 -140 -59 -42 0 -76 5 -83 12 -13 13 -18 381 -6 412 3 9
15 16 25 16 10 0 19 5 19 10 0 6 -33 10 -80 10 -44 0 -80 -4 -80 -9z"/>
<path d="M12560 1051 c0 -5 10 -11 23 -13 22 -3 22 -3 25 -225 2 -218 2 -223
-18 -223 -11 0 -20 -4 -20 -10 0 -6 34 -10 82 -10 49 0 78 4 73 9 -6 5 -19 11
-30 13 -19 3 -20 12 -23 203 -3 224 -1 245 28 245 11 0 20 5 20 10 0 6 -33 10
-80 10 -44 0 -80 -4 -80 -9z"/>
<path d="M13770 1050 c0 -5 8 -10 18 -10 39 0 42 -17 42 -221 0 -109 -3 -204
-6 -213 -3 -9 -14 -16 -24 -16 -11 0 -22 -4 -25 -10 -4 -6 27 -10 85 -10 58 0
89 4 85 10 -3 6 -14 10 -24 10 -34 0 -42 24 -39 117 l3 88 40 3 40 3 59 -98
c81 -133 80 -133 138 -133 26 0 48 5 48 10 0 6 -8 10 -18 10 -10 0 -28 10 -39
23 -20 22 -123 184 -123 192 0 3 8 5 18 5 9 0 30 9 46 19 89 59 70 189 -32
219 -49 15 -292 16 -292 2z m265 -34 c39 -17 55 -42 55 -89 0 -66 -61 -102
-160 -95 l-45 3 -3 77 c-4 103 5 118 69 118 27 0 65 -6 84 -14z"/>
</g>
</svg>
