<svg width="33" height="35" viewBox="0 0 54 54" fill="none" xmlns="http://www.w3.org/2000/svg">
<path d="M39.6308 34.9083C42.8987 30.4485 44.3623 24.919 43.7289 19.4261C43.0955 13.9333 40.4118 8.88218 36.2146 5.28336C32.0175 1.68453 26.6164 -0.196611 21.0921 0.016283C15.5677 0.229177 10.3274 2.5204 6.41957 6.43157C2.51175 10.3427 0.224592 15.5854 0.0156815 21.1107C-0.193229 26.636 1.69151 32.0365 5.29283 36.2316C8.89415 40.4268 13.9465 43.1073 19.439 43.7369C24.9315 44.3664 30.4592 42.8986 34.9161 39.6271H34.9127C35.014 39.7621 35.122 39.8904 35.2435 40.0153L48.2367 53.0103C48.8695 53.6437 49.728 53.9997 50.6232 54C51.5185 54.0003 52.3772 53.6449 53.0105 53.012C53.6437 52.3791 53.9997 51.5205 54 50.6252C54.0003 49.7298 53.645 48.871 53.0122 48.2376L40.0189 35.2425C39.8982 35.1204 39.7685 35.0075 39.6308 34.905V34.9083ZM40.5015 21.9335C40.5015 24.3714 40.0214 26.7855 39.0886 29.0378C38.1558 31.2901 36.7885 33.3367 35.0649 35.0605C33.3413 36.7844 31.295 38.1518 29.043 39.0848C26.791 40.0177 24.3773 40.4979 21.9397 40.4979C19.5021 40.4979 17.0884 40.0177 14.8364 39.0848C12.5844 38.1518 10.5382 36.7844 8.81453 35.0605C7.09091 33.3367 5.72365 31.2901 4.79084 29.0378C3.85802 26.7855 3.3779 24.3714 3.3779 21.9335C3.3779 17.0099 5.33352 12.288 8.81453 8.80649C12.2955 5.32498 17.0168 3.3691 21.9397 3.3691C26.8626 3.3691 31.5839 5.32498 35.0649 8.80649C38.5459 12.288 40.5015 17.0099 40.5015 21.9335V21.9335Z" fill="#630050"/>
</svg>
